<?xml version="1.0" standalone="no"?><!DOCTYPE svg PUBLIC "-//W3C//DTD SVG 1.1//EN" "http://www.w3.org/Graphics/SVG/1.1/DTD/svg11.dtd"><svg t="1524906250166" class="icon" style="" viewBox="0 0 1024 1024" version="1.1" xmlns="http://www.w3.org/2000/svg" p-id="4254" xmlns:xlink="http://www.w3.org/1999/xlink" width="64" height="64"><defs><style type="text/css"></style></defs><path d="M984.192 458.432L813.696 272a42.624 42.624 0 0 0-75.84 26.624v127.808H396.928c-47.04 0-76.928 11.52-76.928 58.624 0 47.04 29.888 60.608 76.928 60.608h340.928v127.872a42.624 42.624 0 0 0 75.84 26.624l170.496-188.48a42.624 42.624 0 0 0 0-53.248z" fill="#ffffff" p-id="4255"></path><path d="M596.544 903.424H204.48c-47.36 0-85.248-38.144-85.248-85.248v-613.76c0-47.36 38.144-85.12 85.248-85.12H596.48c47.104 0 85.248-3.648 85.248-50.688C681.792 21.504 643.648 0 596.48 0H170.432A170.432 170.432 0 0 0 0 170.432v681.792a170.432 170.432 0 0 0 170.432 170.432h426.112c47.104 0 85.248-13.632 85.248-60.672 0-47.104-38.144-58.56-85.248-58.56z" fill="#ffffff" p-id="4256"></path></svg>